<?xml version="1.0" encoding="UTF-8" ?><svg width="617.003173828125" height="303.40000000000003" xmlns="http://www.w3.org/2000/svg" version="1.1" viewBox="-5 -41 617.003173828125 303.40000000000003"><metadata>title DCP - DCP

DCP - Provider -&gt; DCP - Consumer: Topic: dcp/telemetry/available
note left of DCP - Provider, DCP - Consumer: ReturnTopic: dcp/client/{ClientId}/telemetry/request
DCP - Consumer -&gt; DCP - Consumer: GetLatestTimestampByClientId(ClientId)
DCP - Consumer -&gt; DCP - Provider: Topic: dcp/client/{ClientId}/telemetry/request
note right of DCP - Provider, DCP - Consumer: ReturnTopic: dcp/client/{ClientId}/telemetry/receive
DCP - Provider -&gt; DCP - Provider: GetAfterTimestamp(ClientId)
DCP - Provider -&gt; DCP - Consumer: Topic: dcp/client/{ClientId}/telemetry/receive
</metadata><defs></defs><defs><mask id="R0FullMask" maskUnits="userSpaceOnUse"><rect fill="#FFFFFF" height="303.40000000000003" width="617.003173828125" x="-5" y="-41"></rect></mask><mask id="R0LineMask" maskUnits="userSpaceOnUse"><rect fill="#FFFFFF" height="303.40000000000003" width="617.003173828125" x="-5" y="-41"></rect><rect fill="#000000" height="11.4" width="110.93447875976562" x="248.4792022705078" y="37.6"></rect><rect fill="#000000" height="11.4" width="148.85440063476562" x="396.2593994140625" y="91.4"></rect><rect fill="#000000" height="11.4" width="161.62591552734375" x="223.13348388671875" y="131.8"></rect><rect fill="#000000" height="11.4" width="107.50482940673828" x="217.63348388671875" y="185.60000000000002"></rect><rect fill="#000000" height="11.4" width="160.72903442382812" x="223.58192443847656" y="226.00000000000003"></rect></mask></defs><g></g><g><text x="303.5015869140625" class="title" font-family="Helvetica,Arial,Liberation Sans,sans-serif" font-size="20" line-height="1.3" text-anchor="middle" y="-16">DCP - DCP</text></g><g></g><g mask="url(#R0FullMask)"><g mask="url(#R0LineMask)"><line fill="none" stroke="#000000" stroke-width="1" x1="214.63348388671875" x2="214.63348388671875" y1="25.6" y2="257.40000000000003" class="agent-1-line"></line><line fill="none" stroke="#000000" stroke-width="1" x1="393.2593994140625" x2="393.2593994140625" y1="25.6" y2="257.40000000000003" class="agent-2-line"></line></g><g></g><g><g class="region"><g><rect fill="#FFFFFF" stroke="#000000" stroke-width="1" height="25.6" width="100.46053314208984" x="164.40321731567383" y="0"></rect><g><text x="214.63348388671875" font-family="Helvetica,Arial,Liberation Sans,sans-serif" font-size="12" line-height="1.3" text-anchor="middle" y="17">DCP - Provider</text></g></g><rect class="outline" fill="transparent" height="25.6" width="100.46053314208984" x="164.40321731567383" y="0"></rect></g><g class="region"><g><rect fill="#FFFFFF" stroke="#000000" stroke-width="1" height="25.6" width="111.12976837158203" x="337.6945152282715" y="0"></rect><g><text x="393.2593994140625" font-family="Helvetica,Arial,Liberation Sans,sans-serif" font-size="12" line-height="1.3" text-anchor="middle" y="17">DCP - Consumer</text></g></g><rect class="outline" fill="transparent" height="25.6" width="111.12976837158203" x="337.6945152282715" y="0"></rect></g><g class="region"><path d="M214.63348388671875 49L390.2593994140625 49" fill="none" stroke="#000000" stroke-width="1"></path><polygon points="387.7593994140625 54 392.7593994140625 49 387.7593994140625 44" fill="#000000" stroke-width="0" stroke-linejoin="miter"></polygon><path class="outline" fill="transparent" d="M214.63348388671875,35.6L393.2593994140625,35.6L393.2593994140625,54L214.63348388671875,54Z"></path><g><text x="303.9464416503906" font-family="Helvetica,Arial,Liberation Sans,sans-serif" font-size="8" line-height="1.3" text-anchor="middle" y="45.6">Topic: dcp/telemetry/available</text></g></g><g class="region"><g><polygon points="15 59 202.63348388671875 59 209.63348388671875 66 209.63348388671875 79.4 15 79.4" fill="#FFFFFF" stroke="#000000" stroke-width="1"></polygon><polyline points="202.63348388671875 59 202.63348388671875 66 209.63348388671875 66" fill="none" stroke="#000000" stroke-width="1"></polyline></g><rect class="outline" fill="transparent" height="20.4" width="194.63348388671875" x="15" y="59"></rect><g><text x="20" font-family="Helvetica,Arial,Liberation Sans,sans-serif" font-size="8" line-height="1.3" y="72">ReturnTopic: dcp/client/{ClientId}/telemetry/request</text></g></g><g class="region"><rect class="outline" fill="transparent" height="30.400000000000006" width="160.85440063476562" x="393.2593994140625" y="89.4"></rect><g><text x="399.2593994140625" font-family="Helvetica,Arial,Liberation Sans,sans-serif" font-size="8" line-height="1.3" y="99.4">GetLatestTimestampByClientId(ClientId)</text></g><path d="M393.2593994140625 102.80000000000001L548.1138000488281 102.80000000000001A6 6 0 1 1 548.1138000488281 114.80000000000001L396.2593994140625 114.80000000000001" fill="none" stroke="#000000" stroke-width="1"></path><polygon points="398.7593994140625 109.80000000000001 393.7593994140625 114.80000000000001 398.7593994140625 119.80000000000001" fill="#000000" stroke-width="0" stroke-linejoin="miter"></polygon></g><g class="region"><path d="M393.2593994140625 143.20000000000002L217.63348388671875 143.20000000000002" fill="none" stroke="#000000" stroke-width="1"></path><polygon points="220.13348388671875 138.20000000000002 215.13348388671875 143.20000000000002 220.13348388671875 148.20000000000002" fill="#000000" stroke-width="0" stroke-linejoin="miter"></polygon><path class="outline" fill="transparent" d="M393.2593994140625,129.8L214.63348388671875,129.8L214.63348388671875,148.20000000000002L393.2593994140625,148.20000000000002Z"></path><g><text x="303.9464416503906" font-family="Helvetica,Arial,Liberation Sans,sans-serif" font-size="8" line-height="1.3" text-anchor="middle" y="139.8">Topic: dcp/client/{ClientId}/telemetry/request</text></g></g><g class="region"><g><polygon points="398.2593994140625 153.20000000000002 585.003173828125 153.20000000000002 592.003173828125 160.20000000000002 592.003173828125 173.60000000000002 398.2593994140625 173.60000000000002" fill="#FFFFFF" stroke="#000000" stroke-width="1"></polygon><polyline points="585.003173828125 153.20000000000002 585.003173828125 160.20000000000002 592.003173828125 160.20000000000002" fill="none" stroke="#000000" stroke-width="1"></polyline></g><rect class="outline" fill="transparent" height="20.4" width="193.7437744140625" x="398.2593994140625" y="153.20000000000002"></rect><g><text x="403.2593994140625" font-family="Helvetica,Arial,Liberation Sans,sans-serif" font-size="8" line-height="1.3" y="166.20000000000002">ReturnTopic: dcp/client/{ClientId}/telemetry/receive</text></g></g><g class="region"><rect class="outline" fill="transparent" height="30.400000000000006" width="119.50482940673828" x="214.63348388671875" y="183.60000000000002"></rect><g><text x="220.63348388671875" font-family="Helvetica,Arial,Liberation Sans,sans-serif" font-size="8" line-height="1.3" y="193.60000000000002">GetAfterTimestamp(ClientId)</text></g><path d="M214.63348388671875 197.00000000000003L328.13831329345703 197.00000000000003A6 6 0 1 1 328.13831329345703 209.00000000000003L217.63348388671875 209.00000000000003" fill="none" stroke="#000000" stroke-width="1"></path><polygon points="220.13348388671875 204.00000000000003 215.13348388671875 209.00000000000003 220.13348388671875 214.00000000000003" fill="#000000" stroke-width="0" stroke-linejoin="miter"></polygon></g><g class="region"><path d="M214.63348388671875 237.40000000000003L390.2593994140625 237.40000000000003" fill="none" stroke="#000000" stroke-width="1"></path><polygon points="387.7593994140625 242.40000000000003 392.7593994140625 237.40000000000003 387.7593994140625 232.40000000000003" fill="#000000" stroke-width="0" stroke-linejoin="miter"></polygon><path class="outline" fill="transparent" d="M214.63348388671875,224.00000000000003L393.2593994140625,224.00000000000003L393.2593994140625,242.40000000000003L214.63348388671875,242.40000000000003Z"></path><g><text x="303.9464416503906" font-family="Helvetica,Arial,Liberation Sans,sans-serif" font-size="8" line-height="1.3" text-anchor="middle" y="234.00000000000003">Topic: dcp/client/{ClientId}/telemetry/receive</text></g></g><g class="region"><rect class="outline" fill="transparent" height="10" width="10" x="209.63348388671875" y="247.40000000000003"></rect></g><g class="region"><rect class="outline" fill="transparent" height="10" width="10" x="388.2593994140625" y="247.40000000000003"></rect></g></g></g></svg>