<?xml version="1.0" encoding="UTF-8" ?><svg width="870.6448307037354" height="609.7999999999998" xmlns="http://www.w3.org/2000/svg" version="1.1" viewBox="-5 -41 870.6448307037354 609.7999999999998"><metadata>title Sensor to HQ - Data collection


Sensor -&gt; Turbine: Topic: telemetry

Turbine -&gt; Island: Topic: dcp/telemetry/available
note left of Turbine, Turbine: ReturnTopic: dcp/client/{ClientId}/telemetry/request
Island -&gt; Island: GetLatestTimestampByClientId(ClientId)
Island -&gt; Turbine: Topic: dcp/client/{ClientId}/telemetry/request
note right of Turbine, Island: ReturnTopic: dcp/client/{ClientId}/telemetry/receive
Turbine -&gt; Turbine: GetAfterTimestamp(ClientId)
Turbine -&gt; Island: Topic: dcp/client/{ClientId}/telemetry/receive


Island -&gt; HQ: Topic: dcp/telemetry/available
note left of Island, HQ: ReturnTopic: dcp/client/{ClientId}/telemetry/request
HQ -&gt; HQ: GetLatestTimestampByClientId(ClientId)
HQ -&gt; Island: Topic: dcp/client/{ClientId}/telemetry/request
note right of Island, HQ: ReturnTopic: dcp/client/{ClientId}/telemetry/receive
Island -&gt; Island: GetAfterTimestamp(ClientId)
Island -&gt; HQ: Topic: dcp/client/{ClientId}/telemetry/receive

</metadata><defs></defs><defs><mask id="R0FullMask" maskUnits="userSpaceOnUse"><rect fill="#FFFFFF" height="609.7999999999998" width="870.6448307037354" x="-5" y="-41"></rect></mask><mask id="R0LineMask" maskUnits="userSpaceOnUse"><rect fill="#FFFFFF" height="609.7999999999998" width="870.6448307037354" x="-5" y="-41"></rect><rect fill="#000000" height="11.4" width="62.02083969116211" x="115.31550216674805" y="37.6"></rect><rect fill="#000000" height="11.4" width="110.93370056152344" x="305.49417304992676" y="96.6"></rect><rect fill="#000000" height="11.4" width="148.85678100585938" x="471.27857398986816" y="150.4"></rect><rect fill="#000000" height="11.4" width="161.62615966796875" x="280.1479434967041" y="190.8"></rect><rect fill="#000000" height="11.4" width="107.49939727783203" x="256.6434726715088" y="244.6"></rect><rect fill="#000000" height="11.4" width="160.7311553955078" x="280.59544563293457" y="285"></rect><rect fill="#000000" height="11.4" width="110.93370056152344" x="502.1248035430908" y="344"></rect><rect fill="#000000" height="11.4" width="148.85678100585938" x="649.9047336578369" y="397.79999999999995"></rect><rect fill="#000000" height="11.4" width="161.62615966796875" x="476.77857398986816" y="438.19999999999993"></rect><rect fill="#000000" height="11.4" width="107.49939727783203" x="471.27857398986816" y="491.9999999999999"></rect><rect fill="#000000" height="11.4" width="160.7311553955078" x="477.22607612609863" y="532.3999999999999"></rect></mask></defs><g></g><g><text x="430.3224153518677" class="title" font-family="Helvetica,Arial,Liberation Sans,sans-serif" font-size="20" line-height="1.3" text-anchor="middle" y="-16">Sensor to HQ - Data collection</text></g><g></g><g mask="url(#R0FullMask)"><g mask="url(#R0LineMask)"><line fill="none" stroke="#000000" stroke-width="1" x1="39.008371353149414" x2="39.008371353149414" y1="25.6" y2="563.7999999999998" class="agent-1-line"></line><line fill="none" stroke="#000000" stroke-width="1" x1="253.6434726715088" x2="253.6434726715088" y1="25.6" y2="563.7999999999998" class="agent-2-line"></line><line fill="none" stroke="#000000" stroke-width="1" x1="468.27857398986816" x2="468.27857398986816" y1="84.6" y2="563.7999999999998" class="agent-3-line"></line><line fill="none" stroke="#000000" stroke-width="1" x1="646.9047336578369" x2="646.9047336578369" y1="332" y2="563.7999999999998" class="agent-4-line"></line></g><g></g><g><g class="region"><g><rect fill="#FFFFFF" stroke="#000000" stroke-width="1" height="25.6" width="58.01674270629883" x="10" y="0"></rect><g><text x="39.008371353149414" font-family="Helvetica,Arial,Liberation Sans,sans-serif" font-size="12" line-height="1.3" text-anchor="middle" y="17">Sensor</text></g></g><rect class="outline" fill="transparent" height="25.6" width="58.01674270629883" x="10" y="0"></rect></g><g class="region"><g><rect fill="#FFFFFF" stroke="#000000" stroke-width="1" height="25.6" width="60.23343276977539" x="223.5267562866211" y="0"></rect><g><text x="253.6434726715088" font-family="Helvetica,Arial,Liberation Sans,sans-serif" font-size="12" line-height="1.3" text-anchor="middle" y="17">Turbine</text></g></g><rect class="outline" fill="transparent" height="25.6" width="60.23343276977539" x="223.5267562866211" y="0"></rect></g><g class="region"><path d="M39.008371353149414 49L250.6434726715088 49" fill="none" stroke="#000000" stroke-width="1"></path><polygon points="248.1434726715088 54 253.1434726715088 49 248.1434726715088 44" fill="#000000" stroke-width="0" stroke-linejoin="miter"></polygon><path class="outline" fill="transparent" d="M39.008371353149414,35.6L253.6434726715088,35.6L253.6434726715088,54L39.008371353149414,54Z"></path><g><text x="146.3259220123291" font-family="Helvetica,Arial,Liberation Sans,sans-serif" font-size="8" line-height="1.3" text-anchor="middle" y="45.6">Topic: telemetry</text></g></g><g class="region"><g><rect fill="#FFFFFF" stroke="#000000" stroke-width="1" height="25.6" width="52.01190948486328" x="442.2726192474365" y="59"></rect><g><text x="468.27857398986816" font-family="Helvetica,Arial,Liberation Sans,sans-serif" font-size="12" line-height="1.3" text-anchor="middle" y="76">Island</text></g></g><rect class="outline" fill="transparent" height="25.6" width="52.01190948486328" x="442.2726192474365" y="59"></rect></g><g class="region"><path d="M253.6434726715088 108L465.27857398986816 108" fill="none" stroke="#000000" stroke-width="1"></path><polygon points="462.77857398986816 113 467.77857398986816 108 462.77857398986816 103" fill="#000000" stroke-width="0" stroke-linejoin="miter"></polygon><path class="outline" fill="transparent" d="M253.6434726715088,94.6L468.27857398986816,94.6L468.27857398986816,113L253.6434726715088,113Z"></path><g><text x="360.9610233306885" font-family="Helvetica,Arial,Liberation Sans,sans-serif" font-size="8" line-height="1.3" text-anchor="middle" y="104.6">Topic: dcp/telemetry/available</text></g></g><g class="region"><g><polygon points="54.008371353149414 118 241.6434726715088 118 248.6434726715088 125 248.6434726715088 138.4 54.008371353149414 138.4" fill="#FFFFFF" stroke="#000000" stroke-width="1"></polygon><polyline points="241.6434726715088 118 241.6434726715088 125 248.6434726715088 125" fill="none" stroke="#000000" stroke-width="1"></polyline></g><rect class="outline" fill="transparent" height="20.4" width="194.63510131835938" x="54.008371353149414" y="118"></rect><g><text x="59.008371353149414" font-family="Helvetica,Arial,Liberation Sans,sans-serif" font-size="8" line-height="1.3" y="131">ReturnTopic: dcp/client/{ClientId}/telemetry/request</text></g></g><g class="region"><rect class="outline" fill="transparent" height="30.400000000000006" width="160.85678100585938" x="468.27857398986816" y="148.4"></rect><g><text x="474.27857398986816" font-family="Helvetica,Arial,Liberation Sans,sans-serif" font-size="8" line-height="1.3" y="158.4">GetLatestTimestampByClientId(ClientId)</text></g><path d="M468.27857398986816 161.8L623.1353549957275 161.8A6 6 0 1 1 623.1353549957275 173.8L471.27857398986816 173.8" fill="none" stroke="#000000" stroke-width="1"></path><polygon points="473.77857398986816 168.8 468.77857398986816 173.8 473.77857398986816 178.8" fill="#000000" stroke-width="0" stroke-linejoin="miter"></polygon></g><g class="region"><path d="M468.27857398986816 202.20000000000002L256.6434726715088 202.20000000000002" fill="none" stroke="#000000" stroke-width="1"></path><polygon points="259.1434726715088 197.20000000000002 254.1434726715088 202.20000000000002 259.1434726715088 207.20000000000002" fill="#000000" stroke-width="0" stroke-linejoin="miter"></polygon><path class="outline" fill="transparent" d="M468.27857398986816,188.8L253.6434726715088,188.8L253.6434726715088,207.20000000000002L468.27857398986816,207.20000000000002Z"></path><g><text x="360.9610233306885" font-family="Helvetica,Arial,Liberation Sans,sans-serif" font-size="8" line-height="1.3" text-anchor="middle" y="198.8">Topic: dcp/client/{ClientId}/telemetry/request</text></g></g><g class="region"><g><polygon points="473.27857398986816 212.20000000000002 660.0186710357666 212.20000000000002 667.0186710357666 219.20000000000002 667.0186710357666 232.60000000000002 473.27857398986816 232.60000000000002" fill="#FFFFFF" stroke="#000000" stroke-width="1"></polygon><polyline points="660.0186710357666 212.20000000000002 660.0186710357666 219.20000000000002 667.0186710357666 219.20000000000002" fill="none" stroke="#000000" stroke-width="1"></polyline></g><rect class="outline" fill="transparent" height="20.4" width="193.74009704589844" x="473.27857398986816" y="212.20000000000002"></rect><g><text x="478.27857398986816" font-family="Helvetica,Arial,Liberation Sans,sans-serif" font-size="8" line-height="1.3" y="225.20000000000002">ReturnTopic: dcp/client/{ClientId}/telemetry/receive</text></g></g><g class="region"><rect class="outline" fill="transparent" height="30.399999999999977" width="119.49939727783203" x="253.6434726715088" y="242.6"></rect><g><text x="259.6434726715088" font-family="Helvetica,Arial,Liberation Sans,sans-serif" font-size="8" line-height="1.3" y="252.6">GetAfterTimestamp(ClientId)</text></g><path d="M253.6434726715088 256L367.1428699493408 256A6 6 0 1 1 367.1428699493408 268L256.6434726715088 268" fill="none" stroke="#000000" stroke-width="1"></path><polygon points="259.1434726715088 263 254.1434726715088 268 259.1434726715088 273" fill="#000000" stroke-width="0" stroke-linejoin="miter"></polygon></g><g class="region"><path d="M253.6434726715088 296.4L465.27857398986816 296.4" fill="none" stroke="#000000" stroke-width="1"></path><polygon points="462.77857398986816 301.4 467.77857398986816 296.4 462.77857398986816 291.4" fill="#000000" stroke-width="0" stroke-linejoin="miter"></polygon><path class="outline" fill="transparent" d="M253.6434726715088,283L468.27857398986816,283L468.27857398986816,301.4L253.6434726715088,301.4Z"></path><g><text x="360.9610233306885" font-family="Helvetica,Arial,Liberation Sans,sans-serif" font-size="8" line-height="1.3" text-anchor="middle" y="293">Topic: dcp/client/{ClientId}/telemetry/receive</text></g></g><g class="region"><g><rect fill="#FFFFFF" stroke="#000000" stroke-width="1" height="25.6" width="37.993690490722656" x="627.9078884124756" y="306.4"></rect><g><text x="646.9047336578369" font-family="Helvetica,Arial,Liberation Sans,sans-serif" font-size="12" line-height="1.3" text-anchor="middle" y="323.4">HQ</text></g></g><rect class="outline" fill="transparent" height="25.6" width="37.993690490722656" x="627.9078884124756" y="306.4"></rect></g><g class="region"><path d="M468.27857398986816 355.4L643.9047336578369 355.4" fill="none" stroke="#000000" stroke-width="1"></path><polygon points="641.4047336578369 360.4 646.4047336578369 355.4 641.4047336578369 350.4" fill="#000000" stroke-width="0" stroke-linejoin="miter"></polygon><path class="outline" fill="transparent" d="M468.27857398986816,342L646.9047336578369,342L646.9047336578369,360.4L468.27857398986816,360.4Z"></path><g><text x="557.5916538238525" font-family="Helvetica,Arial,Liberation Sans,sans-serif" font-size="8" line-height="1.3" text-anchor="middle" y="352">Topic: dcp/telemetry/available</text></g></g><g class="region"><g><polygon points="268.6434726715088 365.4 456.27857398986816 365.4 463.27857398986816 372.4 463.27857398986816 385.79999999999995 268.6434726715088 385.79999999999995" fill="#FFFFFF" stroke="#000000" stroke-width="1"></polygon><polyline points="456.27857398986816 365.4 456.27857398986816 372.4 463.27857398986816 372.4" fill="none" stroke="#000000" stroke-width="1"></polyline></g><rect class="outline" fill="transparent" height="20.4" width="194.63510131835938" x="268.6434726715088" y="365.4"></rect><g><text x="273.6434726715088" font-family="Helvetica,Arial,Liberation Sans,sans-serif" font-size="8" line-height="1.3" y="378.4">ReturnTopic: dcp/client/{ClientId}/telemetry/request</text></g></g><g class="region"><rect class="outline" fill="transparent" height="30.399999999999977" width="160.85678100585938" x="646.9047336578369" y="395.79999999999995"></rect><g><text x="652.9047336578369" font-family="Helvetica,Arial,Liberation Sans,sans-serif" font-size="8" line-height="1.3" y="405.79999999999995">GetLatestTimestampByClientId(ClientId)</text></g><path d="M646.9047336578369 409.19999999999993L801.7615146636963 409.19999999999993A6 6 0 1 1 801.7615146636963 421.19999999999993L649.9047336578369 421.19999999999993" fill="none" stroke="#000000" stroke-width="1"></path><polygon points="652.4047336578369 416.19999999999993 647.4047336578369 421.19999999999993 652.4047336578369 426.19999999999993" fill="#000000" stroke-width="0" stroke-linejoin="miter"></polygon></g><g class="region"><path d="M646.9047336578369 449.5999999999999L471.27857398986816 449.5999999999999" fill="none" stroke="#000000" stroke-width="1"></path><polygon points="473.77857398986816 444.5999999999999 468.77857398986816 449.5999999999999 473.77857398986816 454.5999999999999" fill="#000000" stroke-width="0" stroke-linejoin="miter"></polygon><path class="outline" fill="transparent" d="M646.9047336578369,436.19999999999993L468.27857398986816,436.19999999999993L468.27857398986816,454.5999999999999L646.9047336578369,454.5999999999999Z"></path><g><text x="557.5916538238525" font-family="Helvetica,Arial,Liberation Sans,sans-serif" font-size="8" line-height="1.3" text-anchor="middle" y="446.19999999999993">Topic: dcp/client/{ClientId}/telemetry/request</text></g></g><g class="region"><g><polygon points="651.9047336578369 459.5999999999999 838.6448307037354 459.5999999999999 845.6448307037354 466.5999999999999 845.6448307037354 479.9999999999999 651.9047336578369 479.9999999999999" fill="#FFFFFF" stroke="#000000" stroke-width="1"></polygon><polyline points="838.6448307037354 459.5999999999999 838.6448307037354 466.5999999999999 845.6448307037354 466.5999999999999" fill="none" stroke="#000000" stroke-width="1"></polyline></g><rect class="outline" fill="transparent" height="20.4" width="193.74009704589844" x="651.9047336578369" y="459.5999999999999"></rect><g><text x="656.9047336578369" font-family="Helvetica,Arial,Liberation Sans,sans-serif" font-size="8" line-height="1.3" y="472.5999999999999">ReturnTopic: dcp/client/{ClientId}/telemetry/receive</text></g></g><g class="region"><rect class="outline" fill="transparent" height="30.399999999999977" width="119.49939727783203" x="468.27857398986816" y="489.9999999999999"></rect><g><text x="474.27857398986816" font-family="Helvetica,Arial,Liberation Sans,sans-serif" font-size="8" line-height="1.3" y="499.9999999999999">GetAfterTimestamp(ClientId)</text></g><path d="M468.27857398986816 503.39999999999986L581.7779712677002 503.39999999999986A6 6 0 1 1 581.7779712677002 515.3999999999999L471.27857398986816 515.3999999999999" fill="none" stroke="#000000" stroke-width="1"></path><polygon points="473.77857398986816 510.39999999999986 468.77857398986816 515.3999999999999 473.77857398986816 520.3999999999999" fill="#000000" stroke-width="0" stroke-linejoin="miter"></polygon></g><g class="region"><path d="M468.27857398986816 543.7999999999998L643.9047336578369 543.7999999999998" fill="none" stroke="#000000" stroke-width="1"></path><polygon points="641.4047336578369 548.7999999999998 646.4047336578369 543.7999999999998 641.4047336578369 538.7999999999998" fill="#000000" stroke-width="0" stroke-linejoin="miter"></polygon><path class="outline" fill="transparent" d="M468.27857398986816,530.3999999999999L646.9047336578369,530.3999999999999L646.9047336578369,548.7999999999998L468.27857398986816,548.7999999999998Z"></path><g><text x="557.5916538238525" font-family="Helvetica,Arial,Liberation Sans,sans-serif" font-size="8" line-height="1.3" text-anchor="middle" y="540.3999999999999">Topic: dcp/client/{ClientId}/telemetry/receive</text></g></g><g class="region"><rect class="outline" fill="transparent" height="10" width="10" x="34.008371353149414" y="553.7999999999998"></rect></g><g class="region"><rect class="outline" fill="transparent" height="10" width="10" x="248.6434726715088" y="553.7999999999998"></rect></g><g class="region"><rect class="outline" fill="transparent" height="10" width="10" x="463.27857398986816" y="553.7999999999998"></rect></g><g class="region"><rect class="outline" fill="transparent" height="10" width="10" x="641.9047336578369" y="553.7999999999998"></rect></g></g></g></svg>